<mxfile host="Electron" agent="Mozilla/5.0 (Macintosh; Intel Mac OS X 10_15_7) AppleWebKit/537.36 (KHTML, like Gecko) draw.io/25.0.2 Chrome/128.0.6613.186 Electron/32.2.5 Safari/537.36" version="25.0.2">
  <diagram name="第 1 页" id="VBuOHBF5glxZD--GXpSJ">
    <mxGraphModel dx="1731" dy="682" grid="1" gridSize="10" guides="1" tooltips="1" connect="1" arrows="1" fold="1" page="1" pageScale="1" pageWidth="827" pageHeight="1169" math="0" shadow="0">
      <root>
        <mxCell id="0" />
        <mxCell id="1" parent="0" />
        <mxCell id="ZD6XAjj-glJ6VHvO1Yao-1" value="Internet Auction System" style="shape=umlFrame;whiteSpace=wrap;html=1;pointerEvents=0;width=150;height=30;" vertex="1" parent="1">
          <mxGeometry x="80" y="110" width="660" height="690" as="geometry" />
        </mxCell>
        <mxCell id="ZD6XAjj-glJ6VHvO1Yao-2" value="Search Active Auctions" style="ellipse;whiteSpace=wrap;html=1;" vertex="1" parent="1">
          <mxGeometry x="130" y="220" width="110" height="40" as="geometry" />
        </mxCell>
        <mxCell id="ZD6XAjj-glJ6VHvO1Yao-4" value="View Auction Detail" style="ellipse;whiteSpace=wrap;html=1;" vertex="1" parent="1">
          <mxGeometry x="150" y="280" width="110" height="40" as="geometry" />
        </mxCell>
        <mxCell id="ZD6XAjj-glJ6VHvO1Yao-5" value="Anyone" style="shape=umlActor;verticalLabelPosition=bottom;verticalAlign=top;html=1;" vertex="1" parent="1">
          <mxGeometry x="20" y="140" width="30" height="60" as="geometry" />
        </mxCell>
        <mxCell id="ZD6XAjj-glJ6VHvO1Yao-12" value="Place Bid" style="ellipse;whiteSpace=wrap;html=1;" vertex="1" parent="1">
          <mxGeometry x="165" y="620" width="100" height="30" as="geometry" />
        </mxCell>
        <mxCell id="ZD6XAjj-glJ6VHvO1Yao-14" value="Cancel Auction" style="ellipse;whiteSpace=wrap;html=1;" vertex="1" parent="1">
          <mxGeometry x="120" y="450" width="100" height="40" as="geometry" />
        </mxCell>
        <mxCell id="ZD6XAjj-glJ6VHvO1Yao-17" value="register" style="ellipse;whiteSpace=wrap;html=1;" vertex="1" parent="1">
          <mxGeometry x="450" y="190" width="90" height="30" as="geometry" />
        </mxCell>
        <mxCell id="ZD6XAjj-glJ6VHvO1Yao-18" value="supply name and email" style="ellipse;whiteSpace=wrap;html=1;" vertex="1" parent="1">
          <mxGeometry x="610" y="190" width="100" height="40" as="geometry" />
        </mxCell>
        <mxCell id="ZD6XAjj-glJ6VHvO1Yao-21" value="Search Management" style="shape=umlFrame;whiteSpace=wrap;html=1;pointerEvents=0;width=140;height=30;" vertex="1" parent="1">
          <mxGeometry x="90" y="150" width="310" height="180" as="geometry" />
        </mxCell>
        <mxCell id="ZD6XAjj-glJ6VHvO1Yao-22" value="login" style="ellipse;whiteSpace=wrap;html=1;" vertex="1" parent="1">
          <mxGeometry x="445" y="250" width="100" height="20" as="geometry" />
        </mxCell>
        <mxCell id="ZD6XAjj-glJ6VHvO1Yao-23" value="reset password" style="ellipse;whiteSpace=wrap;html=1;" vertex="1" parent="1">
          <mxGeometry x="445" y="320" width="95" height="30" as="geometry" />
        </mxCell>
        <mxCell id="ZD6XAjj-glJ6VHvO1Yao-24" value="Member Management" style="shape=umlFrame;whiteSpace=wrap;html=1;pointerEvents=0;width=140;height=30;" vertex="1" parent="1">
          <mxGeometry x="430" y="150" width="300" height="200" as="geometry" />
        </mxCell>
        <mxCell id="ZD6XAjj-glJ6VHvO1Yao-26" value="Email System" style="shape=umlActor;verticalLabelPosition=bottom;verticalAlign=top;html=1;" vertex="1" parent="1">
          <mxGeometry x="780" y="440" width="30" height="60" as="geometry" />
        </mxCell>
        <mxCell id="ZD6XAjj-glJ6VHvO1Yao-28" value="" style="endArrow=open;endFill=1;endSize=12;html=1;rounded=0;entryX=0;entryY=0.5;entryDx=0;entryDy=0;" edge="1" parent="1" source="ZD6XAjj-glJ6VHvO1Yao-5" target="ZD6XAjj-glJ6VHvO1Yao-2">
          <mxGeometry width="160" relative="1" as="geometry">
            <mxPoint x="60" y="300" as="sourcePoint" />
            <mxPoint x="220" y="300" as="targetPoint" />
          </mxGeometry>
        </mxCell>
        <mxCell id="ZD6XAjj-glJ6VHvO1Yao-29" value="" style="endArrow=open;endFill=1;endSize=12;html=1;rounded=0;entryX=0;entryY=0.5;entryDx=0;entryDy=0;" edge="1" parent="1" source="ZD6XAjj-glJ6VHvO1Yao-5" target="ZD6XAjj-glJ6VHvO1Yao-4">
          <mxGeometry width="160" relative="1" as="geometry">
            <mxPoint x="60" y="310" as="sourcePoint" />
            <mxPoint x="160" y="250" as="targetPoint" />
          </mxGeometry>
        </mxCell>
        <mxCell id="ZD6XAjj-glJ6VHvO1Yao-30" value="" style="endArrow=block;endSize=16;endFill=0;html=1;rounded=0;" edge="1" parent="1" source="ZD6XAjj-glJ6VHvO1Yao-11" target="ZD6XAjj-glJ6VHvO1Yao-5">
          <mxGeometry width="160" relative="1" as="geometry">
            <mxPoint x="30" y="460" as="sourcePoint" />
            <mxPoint x="30" y="360" as="targetPoint" />
          </mxGeometry>
        </mxCell>
        <mxCell id="ZD6XAjj-glJ6VHvO1Yao-32" value="" style="endArrow=open;endFill=1;endSize=12;html=1;rounded=0;entryX=0;entryY=0.5;entryDx=0;entryDy=0;" edge="1" parent="1" target="ZD6XAjj-glJ6VHvO1Yao-14">
          <mxGeometry width="160" relative="1" as="geometry">
            <mxPoint x="60" y="490" as="sourcePoint" />
            <mxPoint x="160" y="494.5" as="targetPoint" />
          </mxGeometry>
        </mxCell>
        <mxCell id="ZD6XAjj-glJ6VHvO1Yao-33" value="&amp;lt;&amp;lt;include&amp;gt;&amp;gt;" style="html=1;verticalAlign=bottom;labelBackgroundColor=none;endArrow=open;endFill=0;dashed=1;rounded=0;entryX=0;entryY=0.5;entryDx=0;entryDy=0;exitX=1;exitY=0.5;exitDx=0;exitDy=0;" edge="1" parent="1" source="ZD6XAjj-glJ6VHvO1Yao-12" target="ZD6XAjj-glJ6VHvO1Yao-22">
          <mxGeometry x="0.2553" y="13" width="160" relative="1" as="geometry">
            <mxPoint x="270" y="470" as="sourcePoint" />
            <mxPoint x="430" y="470" as="targetPoint" />
            <mxPoint as="offset" />
          </mxGeometry>
        </mxCell>
        <mxCell id="ZD6XAjj-glJ6VHvO1Yao-34" value="" style="endArrow=open;endFill=1;endSize=12;html=1;rounded=0;entryX=0;entryY=0.5;entryDx=0;entryDy=0;" edge="1" parent="1" target="ZD6XAjj-glJ6VHvO1Yao-17">
          <mxGeometry width="160" relative="1" as="geometry">
            <mxPoint x="50" y="180" as="sourcePoint" />
            <mxPoint x="160" y="250" as="targetPoint" />
          </mxGeometry>
        </mxCell>
        <mxCell id="ZD6XAjj-glJ6VHvO1Yao-35" value="&amp;lt;&amp;lt;extend&amp;gt;&amp;gt;" style="html=1;verticalAlign=bottom;labelBackgroundColor=none;endArrow=open;endFill=0;dashed=1;rounded=0;exitX=0.5;exitY=0;exitDx=0;exitDy=0;entryX=0.5;entryY=1;entryDx=0;entryDy=0;" edge="1" parent="1" source="ZD6XAjj-glJ6VHvO1Yao-23" target="ZD6XAjj-glJ6VHvO1Yao-22">
          <mxGeometry x="-0.1671" y="-16" width="160" relative="1" as="geometry">
            <mxPoint x="580" y="310" as="sourcePoint" />
            <mxPoint x="740" y="310" as="targetPoint" />
            <mxPoint as="offset" />
          </mxGeometry>
        </mxCell>
        <mxCell id="ZD6XAjj-glJ6VHvO1Yao-36" value="&amp;lt;&amp;lt;include&amp;gt;&amp;gt;" style="html=1;verticalAlign=bottom;labelBackgroundColor=none;endArrow=open;endFill=0;dashed=1;rounded=0;entryX=0;entryY=0.5;entryDx=0;entryDy=0;exitX=1;exitY=0.5;exitDx=0;exitDy=0;" edge="1" parent="1" source="ZD6XAjj-glJ6VHvO1Yao-17" target="ZD6XAjj-glJ6VHvO1Yao-18">
          <mxGeometry width="160" relative="1" as="geometry">
            <mxPoint x="280" y="470" as="sourcePoint" />
            <mxPoint x="460" y="280" as="targetPoint" />
          </mxGeometry>
        </mxCell>
        <mxCell id="ZD6XAjj-glJ6VHvO1Yao-37" value="&amp;lt;&amp;lt;include&amp;gt;&amp;gt;" style="html=1;verticalAlign=bottom;labelBackgroundColor=none;endArrow=open;endFill=0;dashed=1;rounded=0;exitX=1;exitY=0.5;exitDx=0;exitDy=0;" edge="1" parent="1" source="ZD6XAjj-glJ6VHvO1Yao-14">
          <mxGeometry x="0.265" y="-19" width="160" relative="1" as="geometry">
            <mxPoint x="280" y="480" as="sourcePoint" />
            <mxPoint x="450" y="260" as="targetPoint" />
            <mxPoint as="offset" />
          </mxGeometry>
        </mxCell>
        <mxCell id="ZD6XAjj-glJ6VHvO1Yao-38" value="&amp;lt;&amp;lt;include&amp;gt;&amp;gt;" style="html=1;verticalAlign=bottom;labelBackgroundColor=none;endArrow=open;endFill=0;dashed=1;rounded=0;entryX=0.5;entryY=1;entryDx=0;entryDy=0;exitX=0.5;exitY=0;exitDx=0;exitDy=0;" edge="1" parent="1" source="ZD6XAjj-glJ6VHvO1Yao-22" target="ZD6XAjj-glJ6VHvO1Yao-17">
          <mxGeometry x="-0.3333" y="25" width="160" relative="1" as="geometry">
            <mxPoint x="560" y="290" as="sourcePoint" />
            <mxPoint x="600" y="280" as="targetPoint" />
            <mxPoint as="offset" />
          </mxGeometry>
        </mxCell>
        <mxCell id="ZD6XAjj-glJ6VHvO1Yao-39" value="receive password" style="ellipse;whiteSpace=wrap;html=1;" vertex="1" parent="1">
          <mxGeometry x="550" y="410" width="100" height="40" as="geometry" />
        </mxCell>
        <mxCell id="ZD6XAjj-glJ6VHvO1Yao-40" value="&amp;lt;&amp;lt;extend&amp;gt;&amp;gt;" style="html=1;verticalAlign=bottom;labelBackgroundColor=none;endArrow=open;endFill=0;dashed=1;rounded=0;entryX=1;entryY=1;entryDx=0;entryDy=0;exitX=0.43;exitY=0;exitDx=0;exitDy=0;exitPerimeter=0;" edge="1" parent="1" source="ZD6XAjj-glJ6VHvO1Yao-39" target="ZD6XAjj-glJ6VHvO1Yao-17">
          <mxGeometry x="-1" y="-20" width="160" relative="1" as="geometry">
            <mxPoint x="650" y="410" as="sourcePoint" />
            <mxPoint x="510" y="300" as="targetPoint" />
            <mxPoint as="offset" />
          </mxGeometry>
        </mxCell>
        <mxCell id="ZD6XAjj-glJ6VHvO1Yao-41" value="" style="endArrow=open;endFill=1;endSize=12;html=1;rounded=0;entryX=1;entryY=0.5;entryDx=0;entryDy=0;" edge="1" parent="1" source="ZD6XAjj-glJ6VHvO1Yao-26" target="ZD6XAjj-glJ6VHvO1Yao-39">
          <mxGeometry width="160" relative="1" as="geometry">
            <mxPoint x="540" y="490" as="sourcePoint" />
            <mxPoint x="700" y="490" as="targetPoint" />
          </mxGeometry>
        </mxCell>
        <mxCell id="ZD6XAjj-glJ6VHvO1Yao-43" value="&amp;lt;&amp;lt;include&amp;gt;&amp;gt;" style="html=1;verticalAlign=bottom;labelBackgroundColor=none;endArrow=open;endFill=0;dashed=1;rounded=0;entryX=0.39;entryY=0.075;entryDx=0;entryDy=0;exitX=1;exitY=0.5;exitDx=0;exitDy=0;entryPerimeter=0;" edge="1" parent="1" source="ZD6XAjj-glJ6VHvO1Yao-23" target="ZD6XAjj-glJ6VHvO1Yao-39">
          <mxGeometry width="160" relative="1" as="geometry">
            <mxPoint x="510" y="280" as="sourcePoint" />
            <mxPoint x="510" y="240" as="targetPoint" />
          </mxGeometry>
        </mxCell>
        <mxCell id="ZD6XAjj-glJ6VHvO1Yao-11" value="Members" style="shape=umlActor;verticalLabelPosition=bottom;verticalAlign=top;html=1;" vertex="1" parent="1">
          <mxGeometry x="20" y="290" width="30" height="60" as="geometry" />
        </mxCell>
        <mxCell id="ZD6XAjj-glJ6VHvO1Yao-49" value="Seller" style="shape=umlActor;verticalLabelPosition=bottom;verticalAlign=top;html=1;" vertex="1" parent="1">
          <mxGeometry x="30" y="460" width="30" height="60" as="geometry" />
        </mxCell>
        <mxCell id="ZD6XAjj-glJ6VHvO1Yao-50" value="Bidder *" style="shape=umlActor;verticalLabelPosition=bottom;verticalAlign=top;html=1;" vertex="1" parent="1">
          <mxGeometry x="10" y="580" width="30" height="60" as="geometry" />
        </mxCell>
        <mxCell id="ZD6XAjj-glJ6VHvO1Yao-51" value="" style="endArrow=block;endSize=16;endFill=0;html=1;rounded=0;exitX=0.5;exitY=0;exitDx=0;exitDy=0;exitPerimeter=0;" edge="1" parent="1" source="ZD6XAjj-glJ6VHvO1Yao-49">
          <mxGeometry width="160" relative="1" as="geometry">
            <mxPoint x="40" y="460" as="sourcePoint" />
            <mxPoint x="40" y="370" as="targetPoint" />
          </mxGeometry>
        </mxCell>
        <mxCell id="ZD6XAjj-glJ6VHvO1Yao-53" value="" style="endArrow=block;endSize=16;endFill=0;html=1;rounded=0;exitX=0.133;exitY=0.217;exitDx=0;exitDy=0;exitPerimeter=0;" edge="1" parent="1" source="ZD6XAjj-glJ6VHvO1Yao-50">
          <mxGeometry width="160" relative="1" as="geometry">
            <mxPoint x="55" y="470" as="sourcePoint" />
            <mxPoint x="20" y="370" as="targetPoint" />
          </mxGeometry>
        </mxCell>
        <mxCell id="ZD6XAjj-glJ6VHvO1Yao-55" value="Sort by Closing Time" style="ellipse;whiteSpace=wrap;html=1;" vertex="1" parent="1">
          <mxGeometry x="290" y="220" width="110" height="40" as="geometry" />
        </mxCell>
        <mxCell id="ZD6XAjj-glJ6VHvO1Yao-56" value="&amp;lt;&amp;lt;extend&amp;gt;&amp;gt;" style="html=1;verticalAlign=bottom;labelBackgroundColor=none;endArrow=open;endFill=0;dashed=1;rounded=0;exitX=0;exitY=0.5;exitDx=0;exitDy=0;entryX=1;entryY=0.5;entryDx=0;entryDy=0;" edge="1" parent="1" source="ZD6XAjj-glJ6VHvO1Yao-55" target="ZD6XAjj-glJ6VHvO1Yao-2">
          <mxGeometry x="-0.2" y="-10" width="160" relative="1" as="geometry">
            <mxPoint x="634" y="293" as="sourcePoint" />
            <mxPoint x="537" y="226" as="targetPoint" />
            <mxPoint as="offset" />
          </mxGeometry>
        </mxCell>
        <mxCell id="ZD6XAjj-glJ6VHvO1Yao-57" value="Auctiion Management" style="shape=umlFrame;whiteSpace=wrap;html=1;pointerEvents=0;width=130;height=25;" vertex="1" parent="1">
          <mxGeometry x="90" y="395" width="340" height="175" as="geometry" />
        </mxCell>
        <mxCell id="ZD6XAjj-glJ6VHvO1Yao-59" value="set Item Details" style="ellipse;whiteSpace=wrap;html=1;" vertex="1" parent="1">
          <mxGeometry x="310" y="520" width="100" height="40" as="geometry" />
        </mxCell>
        <mxCell id="ZD6XAjj-glJ6VHvO1Yao-60" value="&amp;lt;&amp;lt;include&amp;gt;&amp;gt;" style="html=1;verticalAlign=bottom;labelBackgroundColor=none;endArrow=open;endFill=0;dashed=1;rounded=0;entryX=0;entryY=0.5;entryDx=0;entryDy=0;exitX=1;exitY=0.5;exitDx=0;exitDy=0;" edge="1" parent="1" source="ZD6XAjj-glJ6VHvO1Yao-14" target="ZD6XAjj-glJ6VHvO1Yao-59">
          <mxGeometry x="-0.0732" y="-15" width="160" relative="1" as="geometry">
            <mxPoint x="240" y="520" as="sourcePoint" />
            <mxPoint x="460" y="270" as="targetPoint" />
            <mxPoint as="offset" />
          </mxGeometry>
        </mxCell>
        <mxCell id="ZD6XAjj-glJ6VHvO1Yao-65" value="provide images and description" style="ellipse;whiteSpace=wrap;html=1;" vertex="1" parent="1">
          <mxGeometry x="330" y="420" width="100" height="40" as="geometry" />
        </mxCell>
        <mxCell id="ZD6XAjj-glJ6VHvO1Yao-66" value="&amp;lt;&amp;lt;extend&amp;gt;&amp;gt;" style="html=1;verticalAlign=bottom;labelBackgroundColor=none;endArrow=open;endFill=0;dashed=1;rounded=0;exitX=0.5;exitY=1;exitDx=0;exitDy=0;" edge="1" parent="1" source="ZD6XAjj-glJ6VHvO1Yao-65">
          <mxGeometry x="0.5669" y="-6" width="160" relative="1" as="geometry">
            <mxPoint x="300" y="250" as="sourcePoint" />
            <mxPoint x="370" y="520" as="targetPoint" />
            <mxPoint as="offset" />
          </mxGeometry>
        </mxCell>
        <mxCell id="ZD6XAjj-glJ6VHvO1Yao-67" value="Create mutiple Aucti&lt;span style=&quot;color: rgba(0, 0, 0, 0); font-family: monospace; font-size: 0px; text-align: start; text-wrap: nowrap;&quot;&gt;%3CmxGraphModel%3E%3Croot%3E%3CmxCell%20id%3D%220%22%2F%3E%3CmxCell%20id%3D%221%22%20parent%3D%220%22%2F%3E%3CmxCell%20id%3D%222%22%20value%3D%22%26amp%3Blt%3B%26amp%3Blt%3Bextend%26amp%3Bgt%3B%26amp%3Bgt%3B%22%20style%3D%22html%3D1%3BverticalAlign%3Dbottom%3BlabelBackgroundColor%3Dnone%3BendArrow%3Dopen%3BendFill%3D0%3Bdashed%3D1%3Brounded%3D0%3BexitX%3D0.04%3BexitY%3D0.325%3BexitDx%3D0%3BexitDy%3D0%3BentryX%3D1%3BentryY%3D1%3BentryDx%3D0%3BentryDy%3D0%3BexitPerimeter%3D0%3B%22%20edge%3D%221%22%20parent%3D%221%22%3E%3CmxGeometry%20x%3D%22-1%22%20y%3D%22-20%22%20width%3D%22160%22%20relative%3D%221%22%20as%3D%22geometry%22%3E%3CmxPoint%20x%3D%22624%22%20y%3D%22283%22%20as%3D%22sourcePoint%22%2F%3E%3CmxPoint%20x%3D%22527%22%20y%3D%22216%22%20as%3D%22targetPoint%22%2F%3E%3CmxPoint%20as%3D%22offset%22%2F%3E%3C%2FmxGeometry%3E%3C%2FmxCell%3E%3C%2Froot%3E%3C%2FmxGraphModel%3E&lt;/span&gt;ons" style="ellipse;whiteSpace=wrap;html=1;" vertex="1" parent="1">
          <mxGeometry x="150" y="520" width="100" height="40" as="geometry" />
        </mxCell>
        <mxCell id="ZD6XAjj-glJ6VHvO1Yao-68" value="" style="endArrow=open;endFill=1;endSize=12;html=1;rounded=0;entryX=0;entryY=0.5;entryDx=0;entryDy=0;" edge="1" parent="1" target="ZD6XAjj-glJ6VHvO1Yao-67">
          <mxGeometry width="160" relative="1" as="geometry">
            <mxPoint x="70" y="500" as="sourcePoint" />
            <mxPoint x="150" y="460" as="targetPoint" />
          </mxGeometry>
        </mxCell>
        <mxCell id="ZD6XAjj-glJ6VHvO1Yao-69" value="Email Management" style="shape=umlFrame;whiteSpace=wrap;html=1;pointerEvents=0;width=95;height=40;" vertex="1" parent="1">
          <mxGeometry x="445" y="380" width="285" height="200" as="geometry" />
        </mxCell>
        <mxCell id="ZD6XAjj-glJ6VHvO1Yao-70" value="Bid Management" style="shape=umlFrame;whiteSpace=wrap;html=1;pointerEvents=0;width=130;height=25;" vertex="1" parent="1">
          <mxGeometry x="90" y="590" width="320" height="200" as="geometry" />
        </mxCell>
        <mxCell id="ZD6XAjj-glJ6VHvO1Yao-71" value="validate Bid" style="ellipse;whiteSpace=wrap;html=1;" vertex="1" parent="1">
          <mxGeometry x="310" y="615" width="90" height="25" as="geometry" />
        </mxCell>
        <mxCell id="ZD6XAjj-glJ6VHvO1Yao-72" value="&amp;lt;&amp;lt;include&amp;gt;&amp;gt;" style="html=1;verticalAlign=bottom;labelBackgroundColor=none;endArrow=open;endFill=0;dashed=1;rounded=0;entryX=0;entryY=1;entryDx=0;entryDy=0;exitX=1;exitY=0.5;exitDx=0;exitDy=0;" edge="1" parent="1" source="ZD6XAjj-glJ6VHvO1Yao-12" target="ZD6XAjj-glJ6VHvO1Yao-71">
          <mxGeometry x="0.0791" y="6" width="160" relative="1" as="geometry">
            <mxPoint x="240" y="665" as="sourcePoint" />
            <mxPoint x="455" y="270" as="targetPoint" />
            <mxPoint as="offset" />
          </mxGeometry>
        </mxCell>
        <mxCell id="ZD6XAjj-glJ6VHvO1Yao-73" value="check bid time" style="ellipse;whiteSpace=wrap;html=1;" vertex="1" parent="1">
          <mxGeometry x="224" y="750" width="90" height="25" as="geometry" />
        </mxCell>
        <mxCell id="ZD6XAjj-glJ6VHvO1Yao-74" value="check bid amount" style="ellipse;whiteSpace=wrap;html=1;" vertex="1" parent="1">
          <mxGeometry x="314" y="735" width="100" height="30" as="geometry" />
        </mxCell>
        <mxCell id="ZD6XAjj-glJ6VHvO1Yao-75" value="&amp;lt;&amp;lt;include&amp;gt;&amp;gt;" style="html=1;verticalAlign=bottom;labelBackgroundColor=none;endArrow=open;endFill=0;dashed=1;rounded=0;entryX=0.5;entryY=0;entryDx=0;entryDy=0;exitX=0.278;exitY=1.04;exitDx=0;exitDy=0;exitPerimeter=0;" edge="1" parent="1" source="ZD6XAjj-glJ6VHvO1Yao-71" target="ZD6XAjj-glJ6VHvO1Yao-74">
          <mxGeometry x="0.0791" y="6" width="160" relative="1" as="geometry">
            <mxPoint x="240" y="665" as="sourcePoint" />
            <mxPoint x="333" y="666" as="targetPoint" />
            <mxPoint as="offset" />
          </mxGeometry>
        </mxCell>
        <mxCell id="ZD6XAjj-glJ6VHvO1Yao-76" value="&amp;lt;&amp;lt;include&amp;gt;&amp;gt;" style="html=1;verticalAlign=bottom;labelBackgroundColor=none;endArrow=open;endFill=0;dashed=1;rounded=0;entryX=0.678;entryY=0.04;entryDx=0;entryDy=0;exitX=0.222;exitY=0.88;exitDx=0;exitDy=0;exitPerimeter=0;entryPerimeter=0;" edge="1" parent="1" source="ZD6XAjj-glJ6VHvO1Yao-71" target="ZD6XAjj-glJ6VHvO1Yao-73">
          <mxGeometry x="0.0791" y="6" width="160" relative="1" as="geometry">
            <mxPoint x="345" y="671" as="sourcePoint" />
            <mxPoint x="306" y="738" as="targetPoint" />
            <mxPoint as="offset" />
          </mxGeometry>
        </mxCell>
        <mxCell id="ZD6XAjj-glJ6VHvO1Yao-77" value="Auction Closure" style="shape=umlFrame;whiteSpace=wrap;html=1;pointerEvents=0;width=100;height=20;" vertex="1" parent="1">
          <mxGeometry x="430" y="590" width="300" height="200" as="geometry" />
        </mxCell>
        <mxCell id="ZD6XAjj-glJ6VHvO1Yao-78" value="&amp;lt;&amp;lt;include&amp;gt;&amp;gt;" style="html=1;verticalAlign=bottom;labelBackgroundColor=none;endArrow=open;endFill=0;dashed=1;rounded=0;exitX=0.8;exitY=0;exitDx=0;exitDy=0;exitPerimeter=0;" edge="1" parent="1" source="ZD6XAjj-glJ6VHvO1Yao-67">
          <mxGeometry x="0.265" y="-19" width="160" relative="1" as="geometry">
            <mxPoint x="250" y="460" as="sourcePoint" />
            <mxPoint x="450" y="260" as="targetPoint" />
            <mxPoint as="offset" />
          </mxGeometry>
        </mxCell>
        <mxCell id="ZD6XAjj-glJ6VHvO1Yao-80" value="close auction" style="ellipse;whiteSpace=wrap;html=1;" vertex="1" parent="1">
          <mxGeometry x="455" y="740" width="90" height="25" as="geometry" />
        </mxCell>
        <mxCell id="ZD6XAjj-glJ6VHvO1Yao-81" value="End successful" style="ellipse;whiteSpace=wrap;html=1;" vertex="1" parent="1">
          <mxGeometry x="600" y="677.5" width="90" height="25" as="geometry" />
        </mxCell>
        <mxCell id="ZD6XAjj-glJ6VHvO1Yao-82" value="End unsuccessful" style="ellipse;whiteSpace=wrap;html=1;" vertex="1" parent="1">
          <mxGeometry x="480" y="637.5" width="100" height="35" as="geometry" />
        </mxCell>
        <mxCell id="ZD6XAjj-glJ6VHvO1Yao-83" value="notifySeller" style="ellipse;whiteSpace=wrap;html=1;" vertex="1" parent="1">
          <mxGeometry x="510" y="500" width="100" height="40" as="geometry" />
        </mxCell>
        <mxCell id="ZD6XAjj-glJ6VHvO1Yao-84" value="&amp;lt;&amp;lt;extend&amp;gt;&amp;gt;" style="html=1;verticalAlign=bottom;labelBackgroundColor=none;endArrow=open;endFill=0;dashed=1;rounded=0;exitX=0.278;exitY=0;exitDx=0;exitDy=0;exitPerimeter=0;entryX=0.356;entryY=1.12;entryDx=0;entryDy=0;entryPerimeter=0;" edge="1" parent="1" source="ZD6XAjj-glJ6VHvO1Yao-80" target="ZD6XAjj-glJ6VHvO1Yao-81">
          <mxGeometry width="160" relative="1" as="geometry">
            <mxPoint x="460" y="710" as="sourcePoint" />
            <mxPoint x="620" y="710" as="targetPoint" />
          </mxGeometry>
        </mxCell>
        <mxCell id="ZD6XAjj-glJ6VHvO1Yao-85" value="&amp;lt;&amp;lt;extend&amp;gt;&amp;gt;" style="html=1;verticalAlign=bottom;labelBackgroundColor=none;endArrow=open;endFill=0;dashed=1;rounded=0;exitX=0.4;exitY=-0.12;exitDx=0;exitDy=0;exitPerimeter=0;entryX=0;entryY=1;entryDx=0;entryDy=0;" edge="1" parent="1" source="ZD6XAjj-glJ6VHvO1Yao-80" target="ZD6XAjj-glJ6VHvO1Yao-82">
          <mxGeometry width="160" relative="1" as="geometry">
            <mxPoint x="490" y="750" as="sourcePoint" />
            <mxPoint x="522" y="683" as="targetPoint" />
          </mxGeometry>
        </mxCell>
        <mxCell id="ZD6XAjj-glJ6VHvO1Yao-86" value="notifyBidder" style="ellipse;whiteSpace=wrap;html=1;" vertex="1" parent="1">
          <mxGeometry x="610" y="530" width="100" height="40" as="geometry" />
        </mxCell>
        <mxCell id="ZD6XAjj-glJ6VHvO1Yao-87" value="" style="endArrow=open;endFill=1;endSize=12;html=1;rounded=0;entryX=1;entryY=0.5;entryDx=0;entryDy=0;" edge="1" parent="1" target="ZD6XAjj-glJ6VHvO1Yao-83">
          <mxGeometry width="160" relative="1" as="geometry">
            <mxPoint x="790" y="476" as="sourcePoint" />
            <mxPoint x="660" y="440" as="targetPoint" />
          </mxGeometry>
        </mxCell>
        <mxCell id="ZD6XAjj-glJ6VHvO1Yao-88" value="" style="endArrow=open;endFill=1;endSize=12;html=1;rounded=0;entryX=1;entryY=0;entryDx=0;entryDy=0;" edge="1" parent="1" target="ZD6XAjj-glJ6VHvO1Yao-86">
          <mxGeometry width="160" relative="1" as="geometry">
            <mxPoint x="790" y="480" as="sourcePoint" />
            <mxPoint x="670" y="510" as="targetPoint" />
          </mxGeometry>
        </mxCell>
        <mxCell id="ZD6XAjj-glJ6VHvO1Yao-89" value="&amp;lt;&amp;lt;include&amp;gt;&amp;gt;" style="html=1;verticalAlign=bottom;labelBackgroundColor=none;endArrow=open;endFill=0;dashed=1;rounded=0;exitX=0.5;exitY=0;exitDx=0;exitDy=0;entryX=0;entryY=1;entryDx=0;entryDy=0;" edge="1" parent="1" source="ZD6XAjj-glJ6VHvO1Yao-81" target="ZD6XAjj-glJ6VHvO1Yao-86">
          <mxGeometry width="160" relative="1" as="geometry">
            <mxPoint x="670" y="650" as="sourcePoint" />
            <mxPoint x="830" y="650" as="targetPoint" />
          </mxGeometry>
        </mxCell>
        <mxCell id="ZD6XAjj-glJ6VHvO1Yao-90" value="&amp;lt;&amp;lt;include&amp;gt;&amp;gt;" style="html=1;verticalAlign=bottom;labelBackgroundColor=none;endArrow=open;endFill=0;dashed=1;rounded=0;exitX=0;exitY=0;exitDx=0;exitDy=0;entryX=0.4;entryY=1.05;entryDx=0;entryDy=0;entryPerimeter=0;" edge="1" parent="1" source="ZD6XAjj-glJ6VHvO1Yao-81" target="ZD6XAjj-glJ6VHvO1Yao-83">
          <mxGeometry width="160" relative="1" as="geometry">
            <mxPoint x="655" y="688" as="sourcePoint" />
            <mxPoint x="635" y="574" as="targetPoint" />
          </mxGeometry>
        </mxCell>
        <mxCell id="ZD6XAjj-glJ6VHvO1Yao-91" value="&amp;lt;&amp;lt;include&amp;gt;&amp;gt;" style="html=1;verticalAlign=bottom;labelBackgroundColor=none;endArrow=open;endFill=0;dashed=1;rounded=0;exitX=0.5;exitY=0;exitDx=0;exitDy=0;entryX=0.22;entryY=0.875;entryDx=0;entryDy=0;entryPerimeter=0;" edge="1" parent="1" source="ZD6XAjj-glJ6VHvO1Yao-82" target="ZD6XAjj-glJ6VHvO1Yao-83">
          <mxGeometry width="160" relative="1" as="geometry">
            <mxPoint x="623" y="691" as="sourcePoint" />
            <mxPoint x="610" y="532" as="targetPoint" />
          </mxGeometry>
        </mxCell>
        <mxCell id="ZD6XAjj-glJ6VHvO1Yao-92" value="" style="endArrow=open;endFill=1;endSize=12;html=1;rounded=0;entryX=0;entryY=0.5;entryDx=0;entryDy=0;" edge="1" parent="1" target="ZD6XAjj-glJ6VHvO1Yao-83">
          <mxGeometry width="160" relative="1" as="geometry">
            <mxPoint x="60" y="490" as="sourcePoint" />
            <mxPoint x="150" y="460" as="targetPoint" />
          </mxGeometry>
        </mxCell>
        <mxCell id="ZD6XAjj-glJ6VHvO1Yao-93" value="" style="endArrow=open;endFill=1;endSize=12;html=1;rounded=0;entryX=0;entryY=0.5;entryDx=0;entryDy=0;exitX=0.75;exitY=0.1;exitDx=0;exitDy=0;exitPerimeter=0;" edge="1" parent="1" source="ZD6XAjj-glJ6VHvO1Yao-50" target="ZD6XAjj-glJ6VHvO1Yao-86">
          <mxGeometry width="160" relative="1" as="geometry">
            <mxPoint x="70" y="500" as="sourcePoint" />
            <mxPoint x="570" y="510" as="targetPoint" />
          </mxGeometry>
        </mxCell>
        <mxCell id="ZD6XAjj-glJ6VHvO1Yao-95" value="&lt;span style=&quot;color: rgb(214, 214, 221); font-family: -apple-system, &amp;quot;system-ui&amp;quot;, sans-serif; font-size: 13px; text-align: left; background-color: rgb(24, 24, 24);&quot;&gt;Navigate&lt;/span&gt;&lt;span style=&quot;color: rgb(214, 214, 221); font-family: -apple-system, &amp;quot;system-ui&amp;quot;, sans-serif; font-size: 13px; text-align: left; background-color: rgb(24, 24, 24);&quot;&gt;&amp;nbsp;to Auction&lt;/span&gt;" style="ellipse;whiteSpace=wrap;html=1;" vertex="1" parent="1">
          <mxGeometry x="170" y="702.5" width="90" height="47.5" as="geometry" />
        </mxCell>
        <mxCell id="ZD6XAjj-glJ6VHvO1Yao-97" value="&amp;lt;&amp;lt;include&amp;gt;&amp;gt;" style="html=1;verticalAlign=bottom;labelBackgroundColor=none;endArrow=open;endFill=0;dashed=1;rounded=0;entryX=1;entryY=0;entryDx=0;entryDy=0;exitX=0.5;exitY=1;exitDx=0;exitDy=0;" edge="1" parent="1" source="ZD6XAjj-glJ6VHvO1Yao-12" target="ZD6XAjj-glJ6VHvO1Yao-95">
          <mxGeometry x="0.0791" y="6" width="160" relative="1" as="geometry">
            <mxPoint x="340" y="647" as="sourcePoint" />
            <mxPoint x="292" y="739" as="targetPoint" />
            <mxPoint as="offset" />
          </mxGeometry>
        </mxCell>
        <mxCell id="ZD6XAjj-glJ6VHvO1Yao-100" value="participate multiple actions" style="ellipse;whiteSpace=wrap;html=1;" vertex="1" parent="1">
          <mxGeometry x="90" y="660" width="100" height="30" as="geometry" />
        </mxCell>
        <mxCell id="ZD6XAjj-glJ6VHvO1Yao-102" value="" style="endArrow=open;endFill=1;endSize=12;html=1;rounded=0;entryX=0;entryY=0;entryDx=0;entryDy=0;exitX=1;exitY=0.3333333333333333;exitDx=0;exitDy=0;exitPerimeter=0;" edge="1" parent="1" source="ZD6XAjj-glJ6VHvO1Yao-50" target="ZD6XAjj-glJ6VHvO1Yao-100">
          <mxGeometry width="160" relative="1" as="geometry">
            <mxPoint x="50" y="610" as="sourcePoint" />
            <mxPoint x="176" y="652" as="targetPoint" />
          </mxGeometry>
        </mxCell>
        <mxCell id="ZD6XAjj-glJ6VHvO1Yao-103" value="&amp;lt;&amp;lt;include&amp;gt;&amp;gt;" style="html=1;verticalAlign=bottom;labelBackgroundColor=none;endArrow=open;endFill=0;dashed=1;rounded=0;entryX=0;entryY=0.5;entryDx=0;entryDy=0;exitX=0.4;exitY=1.067;exitDx=0;exitDy=0;exitPerimeter=0;" edge="1" parent="1" source="ZD6XAjj-glJ6VHvO1Yao-100" target="ZD6XAjj-glJ6VHvO1Yao-95">
          <mxGeometry x="-0.3086" y="-21" width="160" relative="1" as="geometry">
            <mxPoint x="240" y="670" as="sourcePoint" />
            <mxPoint x="257" y="720" as="targetPoint" />
            <mxPoint as="offset" />
          </mxGeometry>
        </mxCell>
      </root>
    </mxGraphModel>
  </diagram>
</mxfile>
